<?xml version="1.0" encoding="UTF-8" standalone="no"?>
<svg
   xmlns:dc="http://purl.org/dc/elements/1.1/"
   xmlns:cc="http://creativecommons.org/ns#"
   xmlns:rdf="http://www.w3.org/1999/02/22-rdf-syntax-ns#"
   xmlns:svg="http://www.w3.org/2000/svg"
   xmlns="http://www.w3.org/2000/svg"
   id="svg8"
   version="1.1"
   height="24"
   width="250.00002">
  <title
     id="title352">Marion Miller Jewellery</title>
  <metadata
     id="metadata14">
    <rdf:RDF>
      <cc:Work
         rdf:about="">
        <dc:format>image/svg+xml</dc:format>
        <dc:type
           rdf:resource="http://purl.org/dc/dcmitype/StillImage" />
        <dc:title>Marion Miller Jewellery</dc:title>
      </cc:Work>
    </rdf:RDF>
  </metadata>
  <defs
     id="defs12" />
  <g
     transform="translate(-3.898225,-8.5055395)"
     style="fill:none;fill-rule:nonzero"
     id="g6">
    <g
       id="text22"
       style="font-style:normal;font-weight:normal;font-size:38.93254089px;line-height:1.25;font-family:sans-serif;letter-spacing:0px;word-spacing:0px;fill:#000000;fill-opacity:1;stroke:none;stroke-width:0.97331369"
       transform="scale(0.99438198,1.0056498)"
       aria-label="MarionMillerJewellery">
      <path
         id="path309"
         style="font-style:normal;font-variant:normal;font-weight:normal;font-stretch:normal;font-size:25.36149406px;font-family:'DM Serif Display';-inkscape-font-specification:'DM Serif Display';stroke-width:0.97331369"
         d="m 3.9202491,26.236162 v -0.253615 l 0.5072298,-0.17753 Q 5.2897697,25.52604 5.2897697,24.359412 V 11.374327 q 0,-0.50723 -0.1268074,-0.811568 -0.101446,-0.304338 -0.5833144,-0.50723 L 3.9202491,9.751191 V 9.4975761 h 4.8947683 l 4.6918766,12.2749629 4.4129,-12.2749629 h 4.996214 V 9.751191 L 22.510224,9.90336 q -0.481868,0.17753 -0.659399,0.50723 -0.17753,0.304338 -0.17753,0.811568 v 13.264061 q 0,0.50723 0.126807,0.786206 0.126808,0.278977 0.608676,0.481869 l 0.50723,0.228253 v 0.253615 h -6.315012 v -0.253615 l 0.532591,-0.228253 q 0.481869,-0.202892 0.608676,-0.481869 0.126808,-0.278976 0.126808,-0.786206 v -5.706336 l 0.05072,-7.253387 -5.300552,14.709666 h -1.268075 l -5.5288059,-14.532136 0.076084,6.315012 v 6.391097 q 0,0.557952 0.152169,0.913013 0.1775304,0.3297 0.6593988,0.481869 l 0.5579529,0.17753 v 0.253615 z" />
      <path
         id="path311"
         style="font-style:normal;font-variant:normal;font-weight:normal;font-stretch:normal;font-size:25.36149406px;font-family:'DM Serif Display';-inkscape-font-specification:'DM Serif Display';stroke-width:0.97331369"
         d="m 27.189023,26.616585 q -1.470966,0 -2.485426,-0.83693 -0.989098,-0.836929 -0.989098,-2.409342 0,-1.19199 1.217351,-2.181088 1.217352,-1.01446 3.829586,-1.52169 0.405784,-0.07608 0.913014,-0.152169 0.50723,-0.101446 1.065183,-0.202892 v -2.003558 q 0,-1.724581 -0.431146,-2.409342 -0.405784,-0.710121 -1.293436,-0.710121 -0.608676,0 -0.963737,0.405783 -0.355061,0.380423 -0.456507,1.34416 l -0.05072,0.278976 q -0.05072,1.090544 -0.532591,1.597774 -0.481868,0.50723 -1.19199,0.50723 -0.659399,0 -1.090545,-0.405784 -0.431145,-0.405784 -0.431145,-1.090544 0,-1.039821 0.710122,-1.749943 0.735483,-0.710122 1.927473,-1.065183 1.191991,-0.355061 2.586873,-0.355061 2.257173,0 3.474525,1.115906 1.242713,1.090544 1.242713,3.575971 v 5.60489 q 0,1.141267 1.065182,1.141267 h 0.557953 l 0.228254,0.202892 q -0.481869,0.608676 -1.065183,0.938375 -0.557953,0.3297 -1.597774,0.3297 -1.115906,0 -1.775305,-0.50723 -0.634037,-0.532592 -0.836929,-1.394882 -0.760845,0.811567 -1.572413,1.394882 -0.786206,0.557953 -2.054281,0.557953 z m 1.547052,-1.547052 q 0.507229,0 0.938375,-0.228253 0.456507,-0.253615 1.065183,-0.760845 v -4.260731 q -0.253615,0.05072 -0.50723,0.101446 -0.253615,0.05072 -0.583315,0.101446 -1.166628,0.304338 -1.87675,1.039821 -0.684761,0.710122 -0.684761,1.927474 0,1.039821 0.481869,1.572413 0.481868,0.507229 1.166629,0.507229 z" />
      <path
         id="path313"
         style="font-style:normal;font-variant:normal;font-weight:normal;font-stretch:normal;font-size:25.36149406px;font-family:'DM Serif Display';-inkscape-font-specification:'DM Serif Display';stroke-width:0.97331369"
         d="m 36.563266,26.236162 v -0.253615 l 0.380422,-0.101446 q 0.50723,-0.152169 0.684761,-0.456507 0.202892,-0.304338 0.202892,-0.786206 V 16.70024 q 0,-0.557952 -0.202892,-0.811567 -0.177531,-0.278977 -0.684761,-0.380423 l -0.380422,-0.101446 v -0.253615 l 4.362177,-1.470966 0.253615,0.253615 0.228253,2.181088 v 0.202892 q 0.355061,-0.710122 0.913014,-1.293436 0.583314,-0.608676 1.268075,-0.989098 0.710122,-0.380423 1.394882,-0.380423 0.963737,0 1.470967,0.532592 0.507229,0.532591 0.507229,1.344159 0,0.86229 -0.507229,1.344159 -0.481869,0.456507 -1.166629,0.456507 -1.065183,0 -1.876751,-1.065183 l -0.05072,-0.05072 q -0.253615,-0.355061 -0.583314,-0.380422 -0.3297,-0.05072 -0.608676,0.304338 -0.253615,0.228253 -0.431145,0.557952 -0.152169,0.304338 -0.304338,0.710122 v 7.075857 q 0,1.01446 0.887652,1.268075 l 0.811568,0.228253 v 0.253615 z" />
      <path
         id="path315"
         style="font-style:normal;font-variant:normal;font-weight:normal;font-stretch:normal;font-size:25.36149406px;font-family:'DM Serif Display';-inkscape-font-specification:'DM Serif Display';stroke-width:0.97331369"
         d="m 50.801366,12.338063 q -0.86229,0 -1.470966,-0.532591 -0.583315,-0.557953 -0.583315,-1.394882 0,-0.8622909 0.583315,-1.3948823 0.608676,-0.5325914 1.470966,-0.5325914 0.862291,0 1.445606,0.5325914 0.583314,0.5325914 0.583314,1.3948823 0,0.836929 -0.583314,1.394882 -0.583315,0.532591 -1.445606,0.532591 z M 47.80871,26.236162 v -0.253615 l 0.355061,-0.101446 q 0.50723,-0.152169 0.68476,-0.456507 0.202892,-0.304338 0.202892,-0.811567 v -7.938148 q 0,-0.532591 -0.202892,-0.786206 -0.17753,-0.278977 -0.68476,-0.380423 l -0.355061,-0.07608 v -0.253615 l 4.641154,-1.496328 0.253614,0.253615 -0.07608,3.601332 v 7.101218 q 0,0.50723 0.17753,0.811568 0.202892,0.304338 0.684761,0.456507 l 0.253615,0.07608 v 0.253615 z" />
      <path
         id="path317"
         style="font-style:normal;font-variant:normal;font-weight:normal;font-stretch:normal;font-size:25.36149406px;font-family:'DM Serif Display';-inkscape-font-specification:'DM Serif Display';stroke-width:0.97331369"
         d="m 61.257831,26.616585 q -1.927474,0 -3.347718,-0.786207 -1.420243,-0.811568 -2.20645,-2.282534 -0.760844,-1.470967 -0.760844,-3.449163 0,-1.978197 0.811567,-3.423802 0.83693,-1.445605 2.257173,-2.231812 1.445605,-0.786206 3.246272,-0.786206 1.800666,0 3.220909,0.786206 1.420244,0.760845 2.231812,2.20645 0.836929,1.445606 0.836929,3.449164 0,2.003558 -0.786206,3.474524 -0.760845,1.445605 -2.181089,2.257173 -1.394882,0.786207 -3.322355,0.786207 z m 0,-0.50723 q 0.887652,0 1.420243,-0.50723 0.532592,-0.50723 0.760845,-1.800666 0.253615,-1.293436 0.253615,-3.652055 0,-2.383981 -0.253615,-3.677417 -0.228253,-1.293436 -0.760845,-1.800666 -0.532591,-0.50723 -1.420243,-0.50723 -0.887653,0 -1.445606,0.50723 -0.532591,0.50723 -0.786206,1.800666 -0.228253,1.293436 -0.228253,3.677417 0,2.358619 0.228253,3.652055 0.253615,1.293436 0.786206,1.800666 0.557953,0.50723 1.445606,0.50723 z" />
      <path
         id="path319"
         style="font-style:normal;font-variant:normal;font-weight:normal;font-stretch:normal;font-size:25.36149406px;font-family:'DM Serif Display';-inkscape-font-specification:'DM Serif Display';stroke-width:0.97331369"
         d="m 68.661407,26.236162 v -0.253615 l 0.355061,-0.101446 Q 69.90412,25.627486 69.90412,24.638388 V 16.70024 q 0,-0.557952 -0.177531,-0.811567 -0.17753,-0.278977 -0.68476,-0.380423 l -0.380422,-0.101446 v -0.253615 l 4.336815,-1.470966 0.253615,0.253615 0.202892,1.521689 q 0.887652,-0.786206 2.003558,-1.293436 1.115906,-0.50723 2.20645,-0.50723 1.673859,0 2.561511,0.913014 0.913014,0.913014 0.913014,2.789764 v 7.304111 q 0,0.989098 0.963736,1.242713 l 0.228254,0.07608 v 0.253615 h -5.985313 v -0.253615 l 0.3297,-0.101446 q 0.887652,-0.278976 0.887652,-1.242713 v -8.090317 q 0,-1.623135 -1.623136,-1.623135 -1.115905,0 -2.434703,1.115906 v 8.622908 q 0,0.989098 0.887652,1.242713 l 0.228254,0.07608 v 0.253615 z" />
      <path
         id="path321"
         style="font-style:normal;font-variant:normal;font-weight:normal;font-stretch:normal;font-size:25.36149406px;font-family:'DM Serif Display';-inkscape-font-specification:'DM Serif Display';fill:#2e86f8;fill-opacity:1;stroke-width:0.97331369"
         d="m 83.323524,26.236162 v -0.253615 l 0.507229,-0.17753 q 0.862291,-0.278977 0.862291,-1.445605 V 11.374327 q 0,-0.50723 -0.126807,-0.811568 -0.101446,-0.304338 -0.583315,-0.50723 L 83.323524,9.751191 V 9.4975761 h 4.894768 l 4.691876,12.2749629 4.4129,-12.2749629 h 4.996212 V 9.751191 L 101.9135,9.90336 q -0.48187,0.17753 -0.6594,0.50723 -0.17753,0.304338 -0.17753,0.811568 v 13.264061 q 0,0.50723 0.12681,0.786206 0.1268,0.278977 0.60867,0.481869 l 0.50723,0.228253 v 0.253615 h -6.315009 v -0.253615 l 0.532591,-0.228253 q 0.481868,-0.202892 0.608676,-0.481869 0.126807,-0.278976 0.126807,-0.786206 v -5.706336 l 0.05072,-7.253387 -5.300552,14.709666 h -1.268075 l -5.528805,-14.532136 0.07608,6.315012 v 6.391097 q 0,0.557952 0.152169,0.913013 0.177531,0.3297 0.659399,0.481869 l 0.557953,0.17753 v 0.253615 z" />
      <path
         id="path323"
         style="font-style:normal;font-variant:normal;font-weight:normal;font-stretch:normal;font-size:25.36149406px;font-family:'DM Serif Display';-inkscape-font-specification:'DM Serif Display';fill:#2e86f8;fill-opacity:1;stroke-width:0.97331369"
         d="m 106.42824,12.338063 q -0.8623,0 -1.47097,-0.532591 -0.58332,-0.557953 -0.58332,-1.394882 0,-0.8622909 0.58332,-1.3948823 0.60867,-0.5325914 1.47097,-0.5325914 0.86229,0 1.4456,0.5325914 0.58332,0.5325914 0.58332,1.3948823 0,0.836929 -0.58332,1.394882 -0.58331,0.532591 -1.4456,0.532591 z m -2.99266,13.898099 v -0.253615 l 0.35506,-0.101446 q 0.50723,-0.152169 0.68476,-0.456507 0.20289,-0.304338 0.20289,-0.811567 v -7.938148 q 0,-0.532591 -0.20289,-0.786206 -0.17753,-0.278977 -0.68476,-0.380423 l -0.35506,-0.07608 v -0.253615 l 4.64115,-1.496328 0.25362,0.253615 -0.0761,3.601332 v 7.101218 q 0,0.50723 0.17753,0.811568 0.2029,0.304338 0.68476,0.456507 l 0.25362,0.07608 v 0.253615 z" />
      <path
         id="path325"
         style="font-style:normal;font-variant:normal;font-weight:normal;font-stretch:normal;font-size:25.36149406px;font-family:'DM Serif Display';-inkscape-font-specification:'DM Serif Display';fill:#2e86f8;fill-opacity:1;stroke-width:0.97331369"
         d="m 110.54433,26.236162 v -0.253615 l 0.30434,-0.101446 q 0.91301,-0.304338 0.91301,-1.268074 v -13.5684 q 0,-0.50723 -0.20289,-0.760845 -0.20289,-0.278976 -0.71012,-0.4057835 l -0.3297,-0.076085 V 9.5482991 l 4.64115,-1.0905443 0.30434,0.2282535 -0.10145,3.5506087 v 8.673631 q 0,0.938376 0,1.876751 0.0254,0.913014 0.0254,1.826028 0,0.507229 0.20289,0.836929 0.20289,0.304338 0.68476,0.456507 l 0.3297,0.07608 v 0.253615 z" />
      <path
         id="path327"
         style="font-style:normal;font-variant:normal;font-weight:normal;font-stretch:normal;font-size:25.36149406px;font-family:'DM Serif Display';-inkscape-font-specification:'DM Serif Display';fill:#2e86f8;fill-opacity:1;stroke-width:0.97331369"
         d="m 117.77632,26.236162 v -0.253615 l 0.30433,-0.101446 q 0.91302,-0.304338 0.91302,-1.268074 v -13.5684 q 0,-0.50723 -0.20289,-0.760845 -0.2029,-0.278976 -0.71013,-0.4057835 L 117.75096,9.801914 V 9.5482991 l 4.64115,-1.0905443 0.30434,0.2282535 -0.10145,3.5506087 v 8.673631 q 0,0.938376 0,1.876751 0.0254,0.913014 0.0254,1.826028 0,0.507229 0.20289,0.836929 0.2029,0.304338 0.68476,0.456507 l 0.3297,0.07608 v 0.253615 z" />
      <path
         id="path329"
         style="font-style:normal;font-variant:normal;font-weight:normal;font-stretch:normal;font-size:25.36149406px;font-family:'DM Serif Display';-inkscape-font-specification:'DM Serif Display';fill:#2e86f8;fill-opacity:1;stroke-width:0.97331369"
         d="m 131.29795,13.656861 q 1.6485,0 2.81513,0.68476 1.16663,0.659399 1.77531,1.826028 0.63403,1.141267 0.63403,2.612234 0,0.278976 -0.0254,0.583314 -0.0254,0.278977 -0.10145,0.50723 h -7.55772 q 0.0254,2.739042 0.96374,3.956393 0.96373,1.19199 2.84048,1.19199 1.26808,0 2.05428,-0.405783 0.78621,-0.405784 1.47097,-1.191991 l 0.25362,0.228254 q -0.78621,1.394882 -2.10501,2.181088 -1.29343,0.786207 -3.11946,0.786207 -1.80067,0 -3.19555,-0.760845 -1.39488,-0.786207 -2.18109,-2.231812 -0.7862,-1.445605 -0.7862,-3.449163 0,-2.079642 0.91301,-3.525248 0.91301,-1.470966 2.33326,-2.231811 1.4456,-0.760845 3.01801,-0.760845 z m -0.0761,0.50723 q -0.73548,0 -1.26807,0.456507 -0.50723,0.431145 -0.81157,1.572413 -0.27898,1.115905 -0.30434,3.170186 h 4.33682 q 0.25361,-2.764403 -0.2029,-3.981754 -0.4565,-1.217352 -1.74994,-1.217352 z" />
      <path
         id="path331"
         style="font-style:normal;font-variant:normal;font-weight:normal;font-stretch:normal;font-size:25.36149406px;font-family:'DM Serif Display';-inkscape-font-specification:'DM Serif Display';fill:#2e86f8;fill-opacity:1;stroke-width:0.97331369"
         d="m 137.8111,26.236162 v -0.253615 l 0.38043,-0.101446 q 0.50723,-0.152169 0.68476,-0.456507 0.20289,-0.304338 0.20289,-0.786206 V 16.70024 q 0,-0.557952 -0.20289,-0.811567 -0.17753,-0.278977 -0.68476,-0.380423 l -0.38043,-0.101446 v -0.253615 l 4.36218,-1.470966 0.25361,0.253615 0.22826,2.181088 v 0.202892 q 0.35506,-0.710122 0.91301,-1.293436 0.58332,-0.608676 1.26808,-0.989098 0.71012,-0.380423 1.39488,-0.380423 0.96374,0 1.47097,0.532592 0.50723,0.532591 0.50723,1.344159 0,0.86229 -0.50723,1.344159 -0.48187,0.456507 -1.16663,0.456507 -1.06519,0 -1.87675,-1.065183 l -0.0507,-0.05072 q -0.25361,-0.355061 -0.58331,-0.380422 -0.3297,-0.05072 -0.60868,0.304338 -0.25361,0.228253 -0.43114,0.557952 -0.15217,0.304338 -0.30434,0.710122 v 7.075857 q 0,1.01446 0.88765,1.268075 l 0.81157,0.228253 v 0.253615 z" />
      <path
         id="path333"
         style="font-style:normal;font-variant:normal;font-weight:normal;font-stretch:normal;font-size:25.36149406px;font-family:'DM Serif Display';-inkscape-font-specification:'DM Serif Display';stroke-width:0.97331369"
         d="m 151.26299,26.692669 q -1.24271,0 -1.92747,-0.481868 -0.6594,-0.481869 -0.6594,-1.293437 0,-0.710121 0.48187,-1.090544 0.50723,-0.380422 1.16663,-0.380422 0.6594,0 1.16663,0.304338 0.50723,0.278976 0.93837,0.989098 l 0.45651,0.786206 q 0.12681,0.177531 0.30434,0.177531 0.20289,0 0.27897,-0.228254 0.15217,-0.50723 0.2029,-1.470966 0.0761,-0.989099 0.0761,-2.383981 0,-1.597774 -0.0761,-4.108562 -0.0761,-2.510788 -0.15217,-6.188204 0,-1.090545 -0.81157,-1.369521 L 152.12528,9.751191 V 9.4975761 H 158.77 V 9.751191 l -0.55796,0.202892 q -0.4565,0.17753 -0.63403,0.481868 -0.15217,0.278977 -0.15217,0.811568 v 5.021576 q 0,2.485426 -0.22826,4.108562 -0.22825,1.623136 -0.73548,2.815126 -0.63404,1.69922 -2.07964,2.612234 -1.42025,0.887652 -3.11947,0.887652 z" />
      <path
         id="path335"
         style="font-style:normal;font-variant:normal;font-weight:normal;font-stretch:normal;font-size:25.36149406px;font-family:'DM Serif Display';-inkscape-font-specification:'DM Serif Display';stroke-width:0.97331369"
         d="m 165.5756,13.656861 q 1.64849,0 2.81512,0.68476 1.16663,0.659399 1.77531,1.826028 0.63403,1.141267 0.63403,2.612234 0,0.278976 -0.0254,0.583314 -0.0254,0.278977 -0.10144,0.50723 h -7.55773 q 0.0254,2.739042 0.96374,3.956393 0.96373,1.19199 2.84049,1.19199 1.26807,0 2.05428,-0.405783 0.7862,-0.405784 1.47096,-1.191991 l 0.25362,0.228254 q -0.78621,1.394882 -2.10501,2.181088 -1.29343,0.786207 -3.11946,0.786207 -1.80067,0 -3.19555,-0.760845 -1.39488,-0.786207 -2.18109,-2.231812 -0.7862,-1.445605 -0.7862,-3.449163 0,-2.079642 0.91301,-3.525248 0.91301,-1.470966 2.33326,-2.231811 1.4456,-0.760845 3.01802,-0.760845 z m -0.0761,0.50723 q -0.73548,0 -1.26807,0.456507 -0.50723,0.431145 -0.81157,1.572413 -0.27898,1.115905 -0.30434,3.170186 h 4.33682 q 0.25361,-2.764403 -0.2029,-3.981754 -0.4565,-1.217352 -1.74994,-1.217352 z" />
      <path
         id="path337"
         style="font-style:normal;font-variant:normal;font-weight:normal;font-stretch:normal;font-size:25.36149406px;font-family:'DM Serif Display';-inkscape-font-specification:'DM Serif Display';stroke-width:0.97331369"
         d="m 177.18878,26.312247 -3.90567,-10.727912 q -0.27897,-0.811568 -1.1159,-1.141268 l -0.43115,-0.152169 v -0.253614 h 6.21357 v 0.253614 l -0.38042,0.101446 q -0.9891,0.304338 -0.6594,1.217352 l 2.35862,7.177303 2.105,-5.579529 -0.48187,-1.445605 q -0.17753,-0.557953 -0.38042,-0.836929 -0.17753,-0.304338 -0.48187,-0.431146 l -0.43115,-0.202892 v -0.253614 h 5.24983 v 0.253614 l -0.35506,0.152169 q -0.38042,0.152169 -0.4565,0.405784 -0.0761,0.253615 0.10144,0.760845 l 2.33326,7.050496 2.40934,-6.999773 q 0.35506,-0.963737 -0.38042,-1.217352 l -0.55795,-0.152169 v -0.253614 h 3.04338 v 0.253614 l -0.60868,0.177531 q -0.43115,0.126807 -0.63404,0.405784 -0.17753,0.253615 -0.3297,0.710122 l -3.65205,10.727912 h -1.29344 l -2.81512,-8.293209 -2.99266,8.293209 z" />
      <path
         id="path339"
         style="font-style:normal;font-variant:normal;font-weight:normal;font-stretch:normal;font-size:25.36149406px;font-family:'DM Serif Display';-inkscape-font-specification:'DM Serif Display';stroke-width:0.97331369"
         d="m 197.52514,13.656861 q 1.64849,0 2.81512,0.68476 1.16663,0.659399 1.77531,1.826028 0.63403,1.141267 0.63403,2.612234 0,0.278976 -0.0254,0.583314 -0.0254,0.278977 -0.10144,0.50723 h -7.55773 q 0.0254,2.739042 0.96374,3.956393 0.96373,1.19199 2.84048,1.19199 1.26808,0 2.05429,-0.405783 0.7862,-0.405784 1.47096,-1.191991 l 0.25362,0.228254 q -0.78621,1.394882 -2.10501,2.181088 -1.29343,0.786207 -3.11946,0.786207 -1.80067,0 -3.19555,-0.760845 -1.39488,-0.786207 -2.18109,-2.231812 -0.7862,-1.445605 -0.7862,-3.449163 0,-2.079642 0.91301,-3.525248 0.91301,-1.470966 2.33326,-2.231811 1.4456,-0.760845 3.01802,-0.760845 z m -0.0761,0.50723 q -0.73548,0 -1.26807,0.456507 -0.50723,0.431145 -0.81157,1.572413 -0.27898,1.115905 -0.30434,3.170186 h 4.33682 q 0.25361,-2.764403 -0.2029,-3.981754 -0.4565,-1.217352 -1.74994,-1.217352 z" />
      <path
         id="path341"
         style="font-style:normal;font-variant:normal;font-weight:normal;font-stretch:normal;font-size:25.36149406px;font-family:'DM Serif Display';-inkscape-font-specification:'DM Serif Display';stroke-width:0.97331369"
         d="m 203.7181,26.236162 v -0.253615 l 0.30434,-0.101446 q 0.91302,-0.304338 0.91302,-1.268074 v -13.5684 q 0,-0.50723 -0.2029,-0.760845 -0.20289,-0.278976 -0.71012,-0.4057835 l -0.3297,-0.076085 V 9.5482991 l 4.64116,-1.0905443 0.30433,0.2282535 -0.10144,3.5506087 v 8.673631 q 0,0.938376 0,1.876751 0.0254,0.913014 0.0254,1.826028 0,0.507229 0.20289,0.836929 0.20289,0.304338 0.68476,0.456507 l 0.3297,0.07608 v 0.253615 z" />
      <path
         id="path343"
         style="font-style:normal;font-variant:normal;font-weight:normal;font-stretch:normal;font-size:25.36149406px;font-family:'DM Serif Display';-inkscape-font-specification:'DM Serif Display';stroke-width:0.97331369"
         d="m 210.95008,26.236162 v -0.253615 l 0.30434,-0.101446 q 0.91302,-0.304338 0.91302,-1.268074 v -13.5684 q 0,-0.50723 -0.2029,-0.760845 -0.20289,-0.278976 -0.71012,-0.4057835 l -0.3297,-0.076085 V 9.5482991 l 4.64116,-1.0905443 0.30433,0.2282535 -0.10144,3.5506087 v 8.673631 q 0,0.938376 0,1.876751 0.0254,0.913014 0.0254,1.826028 0,0.507229 0.20289,0.836929 0.20289,0.304338 0.68476,0.456507 l 0.3297,0.07608 v 0.253615 z" />
      <path
         id="path345"
         style="font-style:normal;font-variant:normal;font-weight:normal;font-stretch:normal;font-size:25.36149406px;font-family:'DM Serif Display';-inkscape-font-specification:'DM Serif Display';stroke-width:0.97331369"
         d="m 224.47173,13.656861 q 1.6485,0 2.81513,0.68476 1.16662,0.659399 1.7753,1.826028 0.63404,1.141267 0.63404,2.612234 0,0.278976 -0.0254,0.583314 -0.0254,0.278977 -0.10145,0.50723 h -7.55773 q 0.0254,2.739042 0.96374,3.956393 0.96374,1.19199 2.84049,1.19199 1.26807,0 2.05428,-0.405783 0.78621,-0.405784 1.47097,-1.191991 l 0.25361,0.228254 q -0.78621,1.394882 -2.105,2.181088 -1.29344,0.786207 -3.11947,0.786207 -1.80066,0 -3.19554,-0.760845 -1.39489,-0.786207 -2.18109,-2.231812 -0.78621,-1.445605 -0.78621,-3.449163 0,-2.079642 0.91301,-3.525248 0.91302,-1.470966 2.33326,-2.231811 1.44561,-0.760845 3.01802,-0.760845 z m -0.0761,0.50723 q -0.73548,0 -1.26807,0.456507 -0.50723,0.431145 -0.81157,1.572413 -0.27897,1.115905 -0.30434,3.170186 h 4.33682 q 0.25361,-2.764403 -0.20289,-3.981754 -0.45651,-1.217352 -1.74995,-1.217352 z" />
      <path
         id="path347"
         style="font-style:normal;font-variant:normal;font-weight:normal;font-stretch:normal;font-size:25.36149406px;font-family:'DM Serif Display';-inkscape-font-specification:'DM Serif Display';stroke-width:0.97331369"
         d="m 230.98487,26.236162 v -0.253615 l 0.38042,-0.101446 q 0.50723,-0.152169 0.68476,-0.456507 0.20289,-0.304338 0.20289,-0.786206 V 16.70024 q 0,-0.557952 -0.20289,-0.811567 -0.17753,-0.278977 -0.68476,-0.380423 l -0.38042,-0.101446 v -0.253615 l 4.36218,-1.470966 0.25361,0.253615 0.22826,2.181088 v 0.202892 q 0.35506,-0.710122 0.91301,-1.293436 0.58331,-0.608676 1.26807,-0.989098 0.71013,-0.380423 1.39489,-0.380423 0.96373,0 1.47096,0.532592 0.50723,0.532591 0.50723,1.344159 0,0.86229 -0.50723,1.344159 -0.48187,0.456507 -1.16663,0.456507 -1.06518,0 -1.87675,-1.065183 l -0.0507,-0.05072 q -0.25361,-0.355061 -0.58331,-0.380422 -0.3297,-0.05072 -0.60868,0.304338 -0.25361,0.228253 -0.43115,0.557952 -0.15216,0.304338 -0.30433,0.710122 v 7.075857 q 0,1.01446 0.88765,1.268075 l 0.81157,0.228253 v 0.253615 z" />
      <path
         id="path349"
         style="font-style:normal;font-variant:normal;font-weight:normal;font-stretch:normal;font-size:25.36149406px;font-family:'DM Serif Display';-inkscape-font-specification:'DM Serif Display';stroke-width:0.97331369"
         d="m 244.90913,32.322921 q -1.01446,0 -1.62313,-0.50723 -0.58332,-0.50723 -0.58332,-1.293436 0,-0.710122 0.50723,-1.141268 0.50723,-0.431145 1.14127,-0.431145 0.63404,0 1.06518,0.253615 0.43115,0.278976 0.76085,0.786206 l 0.17753,0.202892 q 0.55795,0.760845 1.1159,-0.02536 0.22826,-0.380423 0.50723,-1.01446 0.30434,-0.608676 0.68476,-1.648497 L 243.7425,15.736504 q -0.17753,-0.481869 -0.38042,-0.760845 -0.20289,-0.304338 -0.6594,-0.50723 l -0.45651,-0.177531 v -0.253614 h 6.31502 v 0.228253 l -0.50723,0.202892 q -0.55796,0.17753 -0.58332,0.583314 0,0.380423 0.20289,0.963737 l 2.6376,6.847603 2.51079,-6.923687 q 0.20289,-0.583315 0.15217,-0.963737 -0.0507,-0.405784 -0.63404,-0.557953 l -0.53259,-0.126808 v -0.253614 h 3.52524 v 0.253614 l -0.55795,0.177531 q -0.58331,0.17753 -0.81157,0.50723 -0.22825,0.329699 -0.43114,0.913014 l -4.0832,11.133696 q -0.9891,2.662956 -1.9782,3.981754 -0.9891,1.318798 -2.56151,1.318798 z" />
    </g>
    <text
       id="text26"
       y="65.075699"
       x="53.250996"
       style="font-style:normal;font-weight:normal;font-size:40px;line-height:1.25;font-family:sans-serif;letter-spacing:0px;word-spacing:0px;fill:#000000;fill-opacity:1;stroke:none"
       xml:space="preserve"><tspan
         y="100.46632"
         x="53.250996"
         id="tspan24" /><tspan
         id="tspan28"
         y="150.46632"
         x="53.250996" /></text>
  </g>
  <text
     id="text18"
     y="27.494459"
     x="30.077873"
     style="font-style:normal;font-weight:normal;font-size:40px;line-height:1.25;font-family:sans-serif;letter-spacing:0px;word-spacing:0px;fill:#000000;fill-opacity:1;stroke:none"
     xml:space="preserve"><tspan
       y="62.885086"
       x="30.077873"
       id="tspan16" /></text>
</svg>
